<?xml version="1.0" encoding="UTF-8"?>
<svg xmlns="http://www.w3.org/2000/svg" width="400" height="300" viewBox="0 0 400 300">
  <rect width="100%" height="100%" fill="#f5f5f5" />
  <g transform="translate(40,40)" fill="#b28b5b">
    <path d="M60 10c-22 0-40 18-40 40v60c0 22 18 40 40 40h120c22 0 40-18 40-40V50c0-22-18-40-40-40H60z" fill="#fff" opacity="0.06"/>
    <path d="M120 20c-9 0-16 7-16 16v4h48v-4c0-9-7-16-16-16h-16z" fill="#b28b5b"/>
    <rect x="36" y="66" width="136" height="10" rx="5" fill="#b28b5b" />
  </g>
  <text x="200" y="265" font-family="Segoe UI, Tahoma, Arial" font-size="14" fill="#777" text-anchor="middle">No image available</text>
</svg>